<?xml version="1.0" standalone="no"?><!DOCTYPE svg PUBLIC "-//W3C//DTD SVG 1.1//EN" "http://www.w3.org/Graphics/SVG/1.1/DTD/svg11.dtd"><svg t="1702314434017" class="icon" viewBox="0 0 1024 1024" version="1.1" xmlns="http://www.w3.org/2000/svg" p-id="2564" xmlns:xlink="http://www.w3.org/1999/xlink" width="18" height="20"><path d="M827 86c37.003 0 67 29.997 67 67v716c0 37.003-29.997 67-67 67H198c-37.003 0-67-29.997-67-67V153c0-37.003 29.997-67 67-67h629z m10 662H188v74c0 30.619 24.573 55.498 55.074 55.992L244 878h537c30.619 0 55.498-24.573 55.992-55.074L837 822v-74zM288 134h-44c-30.619 0-55.498 24.573-55.992 55.074L188 190v500h649V190c0-30.619-24.573-55.498-55.074-55.992L781 134H562v298l-136.817-92.58L288 432V134z m227 0H335v213l90.12-57.26L515 347V134z" fill="#1677ff" p-id="2565" data-spm-anchor-id="a313x.search_index.0.i0.17fb3a81Oh6nA0" class=""></path></svg>