<svg t="1702314729789" class="icon" viewBox="0 0 1027 1024" version="1.1" xmlns="http://www.w3.org/2000/svg" p-id="6072" width="18" height="20"><path d="M487.189427 574.026432c0-11.277533-10.14978-20.299559-21.427313-20.299559l-135.330396 0c-12.405286 0-21.427313 9.022026-21.427313 20.299559 0 12.405286 9.022026 21.427313 21.427313 21.427313l135.330396 0C478.167401 595.453744 487.189427 585.303965 487.189427 574.026432L487.189427 574.026432zM737.550661 519.894273 737.550661 519.894273C716.123348 498.46696 686.801762 484.933921 654.096916 484.933921c-32.704846 0-62.026432 13.53304-83.453744 34.960352-21.427313 21.427313-34.960352 50.748899-34.960352 83.453744 0 15.788546 2.255507 30.449339 9.022026 45.110132l-74.431718 130.819383c-3.38326 4.511013-4.511013 10.14978-3.38326 16.9163 3.38326 11.277533 14.660793 18.044053 25.938326 14.660793l58.643172-15.788546 15.788546 59.770925c1.127753 4.511013 4.511013 10.14978 10.14978 12.405286 10.14978 5.638767 22.555066 2.255507 28.193833-7.894273l48.493392-83.453744 47.365639 82.325991c2.255507 5.638767 7.894273 9.022026 13.53304 11.277533 11.277533 2.255507 22.555066-4.511013 25.938326-14.660793l15.788546-59.770925 58.643172 15.788546c5.638767 1.127753 11.277533 0 15.788546-2.255507 10.14978-4.511013 13.53304-18.044053 7.894273-28.193833l-75.559471-130.819383c5.638767-14.660793 9.022026-29.321586 9.022026-45.110132C772.511013 570.643172 758.977974 541.321586 737.550661 519.894273L737.550661 519.894273zM636.052863 722.889868 636.052863 722.889868l-40.599119 71.048458L586.431718 763.488987c-2.255507-11.277533-14.660793-18.044053-25.938326-14.660793l0 0L530.044053 756.722467l39.471366-68.792952 0 0c18.044053 19.171806 40.599119 29.321586 65.409692 33.832599l0 0 0 0L636.052863 722.889868 636.052863 722.889868zM590.942731 646.202643 590.942731 646.202643l-1.127753-1.127753 0 0c-7.894273-12.405286-12.405286-25.938326-12.405286-41.726872 0-20.299559 9.022026-40.599119 22.555066-54.132159 13.53304-13.53304 32.704846-22.555066 54.132159-22.555066 21.427313 0 40.599119 9.022026 54.132159 22.555066 13.53304 13.53304 22.555066 33.832599 22.555066 54.132159 0 20.299559-7.894273 39.471366-21.427313 53.004405l-1.127753 1.127753C675.524229 691.312775 615.753304 687.929515 590.942731 646.202643L590.942731 646.202643zM778.14978 756.722467 778.14978 756.722467l-30.449339-9.022026c-11.277533-2.255507-22.555066 4.511013-25.938326 14.660793l-7.894273 30.449339-40.599119-71.048458-1.127753-2.255507 0 0 0 0 1.127753 0 0 0c23.682819-4.511013 46.237885-14.660793 64.281938-32.704846l0 0L778.14978 756.722467 778.14978 756.722467zM922.502203 310.132159 922.502203 310.132159 669.885463 55.259912c-6.76652-5.638767-14.660793-10.14978-24.810573-10.14978L230.061674 45.110132c-25.938326 0-49.621145 11.277533-66.537445 27.066079-16.9163 16.9163-27.066079 40.599119-27.066079 66.537445l0 724.017621c0 25.938326 10.14978 48.493392 27.066079 66.537445l0 0 0 0c16.9163 16.9163 40.599119 27.066079 66.537445 27.066079l608.986784 0c24.810573 0 48.493392-10.14978 65.409692-27.066079l0 0 0 0c16.9163-16.9163 27.066079-40.599119 27.066079-66.537445L931.524229 333.814978C933.779736 324.792952 930.396476 315.770925 922.502203 310.132159L922.502203 310.132159zM665.374449 151.118943 665.374449 151.118943l162.396476 162.396476-124.052863 0c-10.14978 0-19.171806-4.511013-27.066079-11.277533l-1.127753-1.127753c-6.76652-6.76652-10.14978-15.788546-10.14978-25.938326L665.374449 151.118943 665.374449 151.118943zM863.859031 862.731278 863.859031 862.731278c0 6.76652-2.255507 12.405286-6.76652 16.9163-4.511013 4.511013-10.14978 7.894273-16.9163 7.894273l-608.986784 0c-6.76652 0-12.405286-3.38326-16.9163-7.894273-4.511013-4.511013-6.76652-10.14978-6.76652-16.9163L207.506608 138.713656c0-6.76652 2.255507-12.405286 6.76652-16.9163 4.511013-4.511013 10.14978-6.76652 16.9163-6.76652l393.585903 0 0 159.013216c0 21.427313 9.022026 40.599119 22.555066 55.259912l2.255507 2.255507c14.660793 14.660793 33.832599 23.682819 56.387665 23.682819l160.140969 0L866.114537 862.731278 863.859031 862.731278zM330.431718 404.863436 330.431718 404.863436 330.431718 404.863436l-1.127753 0 0 0 0 0 0 0 0 0 0 0 0 0 0 0 0 0 0 0 0 0 0 0 0 0 0 0 0 0 0 0 0 0 0 0 0 0 0 0 0 0 0 0 0 0 0 0 0 1.127753 0 0 0 0 0 0-1.127753 0 0 0 0 0 0 0 0 0 0 0 0 0 0 0 0 0 0 0 0 0 0 0 0 0 0 0 0 0 0 1.127753 0 0 0 0 0 0-1.127753 0 0 0 0 0 0 0 0 0 0 1.127753 0 0 0 0 0 0 0 0 0 0 0 0 0 0 0 0 0 0 0 0 0 0 0 0 0 0 0 0 0 0 0 0 0 0 0 0 0 1.127753 0 0 0 0 0 0 0 0 0 0 0 0 0 0 0 0 0 0 0 0 0 0 0 0 0 0 0 0 0 0 0 0 0 0 0 0 0 0 0 0 0 0 0 0 1.127753 0 0 0 0 0 0 0 0 0 0 0 0 0 0 0 0 0 0 0 0 0 0 0 0 0 0 0 0 0 0 0 0 0 0 0 1.127753 0 0 0 0 0 0 0 0 0 0 0 0 1.127753 0 0 0 0 0 0 0 0 0 0 0 0 0 0 0 0 0 0 0 0 0 0 0 0 0 0 0 0 0 0 0 0 0 0 0 0 0 0 0 0 0 0 0 0 1.127753 0 1.127753 0 0 0 407.118943 0 0 0 0 0 0 0 0 0 0 0 0 0 0 0 1.127753 0 0 0 0 0 0 0 0 0 0 0 0 0 1.127753 0 0 0 0 0 0 0 0 0 0 0 1.127753 0 0 0 0 0 0 0 0 0 0-1.127753 0 0 0 0 0 0 0 0 0 0 0 0 0 0 0 0 0 0 0 0 0 0 1.127753 0 0 0 0 0 0 0 0 0 0 0 0 0 0 0 0 0 0 0 0 0 0 0 0 0 0 0 0 0 0 0 0 0 0 0 0 0 0 0 0 0 0 0 0 0 0 0 0 0 0 0 0 0 0 0 0 0 0 0 0 0 0 0 0 0 0 0 0-1.127753 0 0 0 0 0 0 0 0 0 0 0 0 0 0 0 0 0 0 0 0 0 0 0 0 0 0 0 0 0 0 0 0 0 0 0 0 0-1.127753 0 0 0 0 0 0 0 0 0 0 0 0 0 0 0 0 0-1.127753 0 0 0 0 0 0 0 0 0 0 0 0 0 0-1.127753 0 0 0 0 0 0 0 0 0 0 0 0 0 0 0 0 0 0 0 0 0 0-1.127753 0 0 0 0 0 0 0 0 0 0-1.127753 0 0 0 0 0 0 0 0 0-1.127753 0 0 0 0 0 0 0 0 0 0 0 0 0-1.127753 0 0 0 0 0 0 0 0 0 0 0 0 0 0 0 0 0L330.431718 404.863436 330.431718 404.863436 330.431718 404.863436zM331.559471 298.854626 331.559471 298.854626l225.550661 0c11.277533 0 21.427313-9.022026 21.427313-21.427313 0-11.277533-10.14978-21.427313-21.427313-21.427313l-225.550661 0c-12.405286 0-21.427313 10.14978-21.427313 21.427313C310.132159 289.832599 319.154185 298.854626 331.559471 298.854626L331.559471 298.854626z" fill="#1677ff" p-id="6073"></path></svg>